<?xml version="1.0" encoding="UTF-8" standalone="no"?>
<!-- Created with Inkscape (http://www.inkscape.org/) -->
<svg
   xmlns:dc="http://purl.org/dc/elements/1.1/"
   xmlns:cc="http://web.resource.org/cc/"
   xmlns:rdf="http://www.w3.org/1999/02/22-rdf-syntax-ns#"
   xmlns:svg="http://www.w3.org/2000/svg"
   xmlns="http://www.w3.org/2000/svg"
   xmlns:xlink="http://www.w3.org/1999/xlink"
   xmlns:sodipodi="http://sodipodi.sourceforge.net/DTD/sodipodi-0.dtd"
   xmlns:inkscape="http://www.inkscape.org/namespaces/inkscape"
   width="500"
   height="300"
   id="svg2"
   sodipodi:version="0.32"
   inkscape:version="0.45.1"
   version="1.0"
   sodipodi:docbase="C:\Dokumente und Einstellungen\Anne\Desktop\topologie"
   sodipodi:docname="topologie_5_path.svg"
   inkscape:output_extension="org.inkscape.output.svg.inkscape">
  <defs
     id="defs4">
    <marker
       inkscape:stockid="Arrow1Mend"
       orient="auto"
       refY="0"
       refX="0"
       id="Arrow1Mend"
       style="overflow:visible">
      <path
         id="path4253"
         d="M 0,0 L 5,-5 L -12.5,0 L 5,5 L 0,0 z "
         style="fill-rule:evenodd;stroke:#000000;stroke-width:1pt;marker-start:none"
         transform="matrix(-0.4,0,0,-0.4,-4,0)" />
    </marker>
    <marker
       inkscape:stockid="Arrow2Mend"
       orient="auto"
       refY="0"
       refX="0"
       id="Arrow2Mend"
       style="overflow:visible">
      <path
         id="path9961"
         style="font-size:12px;fill-rule:evenodd;stroke-width:0.625;stroke-linejoin:round"
         d="M 8.7185878,4.0337352 L -2.2072895,0.016013256 L 8.7185884,-4.0017078 C 6.97309,-1.6296469 6.9831476,1.6157441 8.7185878,4.0337352 z "
         transform="scale(-0.6,-0.6)" />
    </marker>
    <linearGradient
       id="linearGradient5072">
      <stop
         style="stop-color:#ffffff;stop-opacity:1;"
         offset="0"
         id="stop5074" />
      <stop
         id="stop6051"
         offset="0.83783782"
         style="stop-color:#ffffff;stop-opacity:1;" />
      <stop
         style="stop-color:#000000;stop-opacity:1;"
         offset="1"
         id="stop5076" />
    </linearGradient>
    <radialGradient
       inkscape:collect="always"
       xlink:href="#linearGradient5072"
       id="radialGradient5078"
       cx="176.15598"
       cy="184.77895"
       fx="176.15598"
       fy="184.77895"
       r="15.864271"
       gradientUnits="userSpaceOnUse" />
    <radialGradient
       inkscape:collect="always"
       xlink:href="#linearGradient5072"
       id="radialGradient10186"
       gradientUnits="userSpaceOnUse"
       cx="176.15598"
       cy="184.77895"
       fx="176.15598"
       fy="184.77895"
       r="15.864271" />
    <radialGradient
       inkscape:collect="always"
       xlink:href="#linearGradient5072"
       id="radialGradient3258"
       gradientUnits="userSpaceOnUse"
       cx="176.15598"
       cy="184.77895"
       fx="176.15598"
       fy="184.77895"
       r="15.864271" />
    <radialGradient
       r="15.864271"
       fy="184.77895"
       fx="176.15598"
       cy="184.77895"
       cx="176.15598"
       gradientUnits="userSpaceOnUse"
       id="radialGradient10216"
       xlink:href="#linearGradient5072"
       inkscape:collect="always" />
    <radialGradient
       r="15.864271"
       fy="184.77895"
       fx="176.15598"
       cy="184.77895"
       cx="176.15598"
       gradientUnits="userSpaceOnUse"
       id="radialGradient4527"
       xlink:href="#linearGradient5072"
       inkscape:collect="always" />
    <radialGradient
       gradientUnits="userSpaceOnUse"
       r="15.864271"
       fy="184.77895"
       fx="176.15598"
       cy="184.77895"
       cx="176.15598"
       id="radialGradient4525"
       xlink:href="#linearGradient5072"
       inkscape:collect="always" />
    <linearGradient
       id="linearGradient4517">
      <stop
         id="stop4519"
         offset="0"
         style="stop-color:#ffffff;stop-opacity:1;" />
      <stop
         style="stop-color:#ffffff;stop-opacity:1;"
         offset="0.83783782"
         id="stop4521" />
      <stop
         id="stop4523"
         offset="1"
         style="stop-color:#000000;stop-opacity:1;" />
    </linearGradient>
    <marker
       style="overflow:visible"
       id="marker4513"
       refX="0"
       refY="0"
       orient="auto"
       inkscape:stockid="Arrow2Mend">
      <path
         transform="scale(-0.6,-0.6)"
         d="M 8.7185878,4.0337352 L -2.2072895,0.016013256 L 8.7185884,-4.0017078 C 6.97309,-1.6296469 6.9831476,1.6157441 8.7185878,4.0337352 z "
         style="font-size:12px;fill-rule:evenodd;stroke-width:0.625;stroke-linejoin:round"
         id="path4515" />
    </marker>
    <radialGradient
       inkscape:collect="always"
       xlink:href="#linearGradient5072"
       id="radialGradient4566"
       gradientUnits="userSpaceOnUse"
       cx="176.15598"
       cy="184.77895"
       fx="176.15598"
       fy="184.77895"
       r="15.864271" />
  </defs>
  <sodipodi:namedview
     id="base"
     pagecolor="#ffffff"
     bordercolor="#666666"
     borderopacity="1.0"
     inkscape:pageopacity="0.0"
     inkscape:pageshadow="2"
     inkscape:zoom="0.99999999"
     inkscape:cx="433.88242"
     inkscape:cy="126.03894"
     inkscape:document-units="px"
     inkscape:current-layer="g3162"
     width="500px"
     height="300px"
     inkscape:window-width="1202"
     inkscape:window-height="968"
     inkscape:window-x="44"
     inkscape:window-y="22" />
  <metadata
     id="metadata7">
    <rdf:RDF>
      <cc:Work
         rdf:about="">
        <dc:format>image/svg+xml</dc:format>
        <dc:type
           rdf:resource="http://purl.org/dc/dcmitype/StillImage" />
      </cc:Work>
    </rdf:RDF>
  </metadata>
  <g
     inkscape:label="Ebene 1"
     inkscape:groupmode="layer"
     id="layer1">
    <g
       id="g3162"
       transform="translate(20.281066,44.563063)">
      <path
         style="opacity:1;fill:#ececec;fill-opacity:1;fill-rule:evenodd;stroke:#000000;stroke-width:2;stroke-linecap:square;stroke-linejoin:bevel;stroke-miterlimit:4;stroke-dasharray:none;stroke-dashoffset:0;stroke-opacity:1"
         d="M 335.16861,68.24575 L 395.31689,109.21374"
         id="path3506"
         transform="translate(-19.220406,-45.623723)"
         sodipodi:nodetypes="cc" />
      <path
         style="opacity:1;fill:#ececec;fill-opacity:1;fill-rule:evenodd;stroke:#000000;stroke-width:2;stroke-linecap:square;stroke-linejoin:bevel;stroke-miterlimit:4;stroke-dasharray:none;stroke-dashoffset:0;stroke-opacity:1"
         d="M 272.23611,56.755265 L 202.23254,76.554255"
         id="path3504"
         transform="translate(-23.531066,-44.688063)" />
      <path
         style="opacity:1;fill:#ececec;fill-opacity:1;fill-rule:evenodd;stroke:#000000;stroke-width:2;stroke-linecap:square;stroke-linejoin:bevel;stroke-miterlimit:4;stroke-dasharray:none;stroke-dashoffset:0;stroke-opacity:1"
         d="M 426.02632,167.43524 L 420.46261,186.8678"
         id="path3514"
         transform="translate(-20.281066,-44.563063)"
         sodipodi:nodetypes="cc" />
      <path
         style="opacity:1;fill:#ececec;fill-opacity:1;fill-rule:evenodd;stroke:#000000;stroke-width:2;stroke-linecap:square;stroke-linejoin:bevel;stroke-miterlimit:4;stroke-dasharray:none;stroke-dashoffset:0;stroke-opacity:1"
         d="M 290.62089,187.57002 L 390.72612,143.81151"
         id="path3510"
         transform="translate(-16.436396,-37.819344)"
         sodipodi:nodetypes="cc" />
      <path
         transform="matrix(2.266024,0,0,2.266024,-379.3379,-377.52353)"
         d="M 192.57143 186.05432 A 15.595573 15.595573 0 1 1  161.38029,186.05432 A 15.595573 15.595573 0 1 1  192.57143 186.05432 z"
         sodipodi:ry="15.595573"
         sodipodi:rx="15.595573"
         sodipodi:cy="186.05432"
         sodipodi:cx="176.97586"
         id="path2160"
         style="fill:#ffffff;fill-opacity:1;fill-rule:evenodd;stroke:#000000;stroke-width:0.88260317;stroke-linecap:square;stroke-linejoin:bevel;stroke-miterlimit:4;stroke-dasharray:none;stroke-dashoffset:0;stroke-opacity:1"
         sodipodi:type="arc" />
      <path
         transform="matrix(4.0272059,0,0,4.0272059,-584.48171,-553.46058)"
         style="font-size:12px;font-style:normal;font-weight:normal;fill:#000000;fill-opacity:1;stroke:none;stroke-width:1px;stroke-linecap:butt;stroke-linejoin:miter;stroke-opacity:1;font-family:FreeSans"
         d="M 152.18799,150.12207 L 148.81592,150.12207 L 147.89197,152.75 L 146.70398,152.75 L 149.8241,144.00195 L 151.26404,144.00195 L 154.33618,152.75 L 153.08813,152.75 L 152.18799,150.12207 z M 151.87598,149.18604 L 150.53198,145.20203 L 149.09204,149.18604 L 151.87598,149.18604 z "
         id="text10167" />
      <path
         sodipodi:type="arc"
         style="fill:#ffffff;fill-opacity:1;fill-rule:evenodd;stroke:#000000;stroke-width:0.88260317;stroke-linecap:square;stroke-linejoin:bevel;stroke-miterlimit:4;stroke-dasharray:none;stroke-dashoffset:0;stroke-opacity:1"
         id="path3252"
         sodipodi:cx="176.97586"
         sodipodi:cy="186.05432"
         sodipodi:rx="15.595573"
         sodipodi:ry="15.595573"
         d="M 192.57143 186.05432 A 15.595573 15.595573 0 1 1  161.38029,186.05432 A 15.595573 15.595573 0 1 1  192.57143 186.05432 z"
         transform="matrix(2.266024,0,0,2.266024,12.595554,-333.81895)" />
      <path
         transform="matrix(4.0272059,0,0,4.0272059,-193.34539,-509.756)"
         style="font-size:12px;font-style:normal;font-weight:normal;fill:#000000;fill-opacity:1;stroke:none;stroke-width:1px;stroke-linecap:butt;stroke-linejoin:miter;stroke-opacity:1;font-family:FreeSans"
         d="M 148.69617,148.76599 L 148.69617,151.76599 L 153.85608,151.76599 L 153.85608,152.75 L 147.57996,152.75 L 147.57996,144.00195 L 153.64001,144.00195 L 153.64001,144.98596 L 148.69617,144.98596 L 148.69617,147.78198 L 153.45984,147.78198 L 153.45984,148.76599 L 148.69617,148.76599 z "
         id="text3254" />
      <path
         sodipodi:type="arc"
         style="fill:#ffffff;fill-opacity:1;fill-rule:evenodd;stroke:#000000;stroke-width:0.88260317;stroke-linecap:square;stroke-linejoin:bevel;stroke-miterlimit:4;stroke-dasharray:none;stroke-dashoffset:0;stroke-opacity:1"
         id="path3262"
         sodipodi:cx="176.97586"
         sodipodi:cy="186.05432"
         sodipodi:rx="15.595573"
         sodipodi:ry="15.595573"
         d="M 192.57143 186.05432 A 15.595573 15.595573 0 1 1  161.38029,186.05432 A 15.595573 15.595573 0 1 1  192.57143 186.05432 z"
         transform="matrix(2.266024,0,0,2.266024,-159.2314,-255.3301)" />
      <path
         transform="matrix(4.0272059,0,0,4.0272059,-364.50792,-431.26715)"
         style="font-size:12px;font-style:normal;font-weight:normal;fill:#000000;fill-opacity:1;stroke:none;stroke-width:1px;stroke-linecap:butt;stroke-linejoin:miter;stroke-opacity:1;font-family:FreeSans"
         d="M 147.56787,152.75 L 147.56787,144.00195 L 150.93994,144.00195 C 152.24389,144.00196 153.21191,144.53004 153.84399,145.58618 L 154.10803,146.10217 C 154.37194,146.75013 154.5039,147.50611 154.50391,148.37012 C 154.5039,150.04199 154.03991,151.25794 153.11194,152.01794 C 152.52795,152.50598 151.80395,152.75 150.93994,152.75 L 147.56787,152.75 z M 148.68408,151.76599 L 150.74805,151.76599 C 152.14013,151.76599 152.98412,151.04199 153.28003,149.59399 C 153.35204,149.23389 153.38805,148.82984 153.38806,148.38184 C 153.38805,146.41407 152.71606,145.30213 151.37207,145.04602 C 151.17211,145.00599 150.96411,144.98597 150.74805,144.98596 L 148.68408,144.98596 L 148.68408,151.76599 z "
         id="text3264" />
      <path
         style="fill:none;fill-opacity:1;fill-rule:evenodd;stroke:#000000;stroke-width:2.10082912;stroke-linecap:square;stroke-linejoin:bevel;stroke-miterlimit:4;stroke-dasharray:none;stroke-dashoffset:0;stroke-opacity:1"
         d="M 84.116293,60.437498 L 138.875,60.437498"
         id="path4540"
         transform="matrix(0.9063137,0,0,1,-18.181466,-16.210778)"
         sodipodi:nodetypes="cc" />
      <path
         id="path10159"
         style="font-size:12px;fill-rule:evenodd;stroke-width:0.625;stroke-linejoin:round"
         d="M 8.7185878,4.0337352 L -2.2072895,0.016013256 L 8.7185884,-4.0017078 C 6.97309,-1.6296469 6.9831476,1.6157441 8.7185878,4.0337352 z "
         transform="matrix(-1.4612884,6.3954326e-3,6.3954326e-3,1.4612884,109.05488,44.163185)" />
      <path
         sodipodi:type="arc"
         style="fill:#ffffff;fill-opacity:1;fill-rule:evenodd;stroke:#000000;stroke-width:0.88260317;stroke-linecap:square;stroke-linejoin:bevel;stroke-miterlimit:4;stroke-dasharray:none;stroke-dashoffset:0;stroke-opacity:1"
         id="path3169"
         sodipodi:cx="176.97586"
         sodipodi:cy="186.05432"
         sodipodi:rx="15.595573"
         sodipodi:ry="15.595573"
         d="M 192.57143 186.05432 A 15.595573 15.595573 0 1 1  161.38029,186.05432 A 15.595573 15.595573 0 1 1  192.57143 186.05432 z"
         transform="matrix(2.266024,0,0,2.266024,-252.39402,-377.52353)" />
      <path
         transform="matrix(4.0272059,0,0,4.0272059,-458.31063,-553.46058)"
         style="font-size:12px;font-style:normal;font-weight:normal;fill:#000000;fill-opacity:1;stroke:none;stroke-width:1px;stroke-linecap:butt;stroke-linejoin:miter;stroke-opacity:1;font-family:FreeSans"
         d="M 147.44812,152.75 L 147.44812,144.00195 L 151,144.00195 C 151.82397,144.00196 152.45593,144.20594 152.89587,144.61389 C 153.35998,145.02991 153.59203,145.56593 153.59204,146.22192 C 153.59203,147.11793 153.18798,147.75391 152.37988,148.12988 C 153.21996,148.45801 153.72399,148.94202 153.89197,149.58191 C 153.94006,149.74207 153.96801,149.91407 153.97583,150.0979 C 153.97582,150.146 153.97582,150.198 153.97583,150.25391 C 153.97582,150.95801 153.75182,151.54602 153.30383,152.01794 C 152.84802,152.50598 152.21203,152.75 151.39587,152.75 L 147.44812,152.75 z M 148.56396,147.7699 L 150.72388,147.7699 C 151.30004,147.7699 151.72412,147.6659 151.99609,147.45789 C 152.31591,147.21009 152.47582,146.85016 152.47583,146.37811 C 152.47582,145.90607 152.31591,145.54603 151.99609,145.29797 C 151.72412,145.08997 151.30004,144.98597 150.72388,144.98596 L 148.56396,144.98596 L 148.56396,147.7699 z M 152.85999,150.26599 C 152.85998,149.56995 152.57604,149.10999 152.00818,148.88611 C 151.80017,148.79798 151.56005,148.75391 151.28784,148.75391 L 148.56396,148.75391 L 148.56396,151.76599 L 151.28784,151.76599 C 151.80786,151.76599 152.19592,151.62598 152.45203,151.34595 C 152.72399,151.05786 152.85998,150.69788 152.85999,150.26599 L 152.85999,150.26599 z "
         id="text3171" />
      <path
         id="path4549"
         style="font-size:12px;fill-rule:evenodd;stroke-width:0.625;stroke-linejoin:round"
         d="M 8.7185878,4.0337352 L -2.2072895,0.016013256 L 8.7185884,-4.0017078 C 6.97309,-1.6296469 6.9831476,1.6157441 8.7185878,4.0337352 z "
         transform="matrix(-1.3871157,0.4596899,0.4596899,1.3871157,250.55688,11.058583)" />
      <path
         sodipodi:type="arc"
         style="fill:#ffffff;fill-opacity:1;fill-rule:evenodd;stroke:#000000;stroke-width:0.88260317;stroke-linecap:square;stroke-linejoin:bevel;stroke-miterlimit:4;stroke-dasharray:none;stroke-dashoffset:0;stroke-opacity:1"
         id="path3242"
         sodipodi:cx="176.97586"
         sodipodi:cy="186.05432"
         sodipodi:rx="15.595573"
         sodipodi:ry="15.595573"
         d="M 192.57143 186.05432 A 15.595573 15.595573 0 1 1  161.38029,186.05432 A 15.595573 15.595573 0 1 1  192.57143 186.05432 z"
         transform="matrix(2.266024,0,0,2.266024,-112.56235,-422.20729)" />
      <path
         transform="matrix(4.0272059,0,0,4.0272059,-319.03496,-598.41054)"
         style="font-size:12px;font-style:normal;font-weight:normal;fill:#000000;fill-opacity:1;stroke:none;stroke-width:1px;stroke-linecap:butt;stroke-linejoin:miter;stroke-opacity:1;font-family:FreeSans"
         d="M 154.44385,146.71411 L 153.30383,146.71411 C 153.18395,146.11402 152.97204,145.67396 152.66809,145.39392 C 152.23596,145.04188 151.65991,144.85792 150.93994,144.84204 C 149.91601,144.84205 149.16003,145.30201 148.672,146.22192 C 148.35193,146.82203 148.19189,147.57007 148.19189,148.46606 C 148.19189,149.82593 148.5719,150.8219 149.33191,151.45398 C 149.80407,151.84607 150.37207,152.04211 151.03589,152.04211 C 151.90795,152.04211 152.54797,151.73413 152.95593,151.11816 C 153.00402,151.05396 153.04406,150.98584 153.07605,150.91382 C 153.25207,150.57788 153.38403,150.12598 153.47192,149.55811 L 154.62402,149.55811 C 154.3601,151.87012 153.16015,153.02612 151.02417,153.02612 C 149.89599,153.02612 149.0039,152.68604 148.3479,152.00586 C 147.5,151.13403 147.07605,149.95813 147.07605,148.47815 C 147.07605,147.01404 147.48401,145.83802 148.29993,144.95007 C 148.95593,144.22205 149.88,143.85804 151.07214,143.85803 C 152.97595,143.85804 154.09985,144.81007 154.44385,146.71411 L 154.44385,146.71411 z "
         id="text3244" />
      <path
         sodipodi:type="arc"
         style="fill:#ffffff;fill-opacity:1;fill-rule:evenodd;stroke:#000000;stroke-width:0.88260317;stroke-linecap:square;stroke-linejoin:bevel;stroke-miterlimit:4;stroke-dasharray:none;stroke-dashoffset:0;stroke-opacity:1"
         id="path3462"
         sodipodi:cx="176.97586"
         sodipodi:cy="186.05432"
         sodipodi:rx="15.595573"
         sodipodi:ry="15.595573"
         d="M 192.57143 186.05432 A 15.595573 15.595573 0 1 1  161.38029,186.05432 A 15.595573 15.595573 0 1 1  192.57143 186.05432 z"
         transform="matrix(2.266024,0,0,2.266024,-282.71968,-236.8773)" />
      <path
         transform="matrix(4.0272059,0,0,4.0272059,-489.86923,-413.08055)"
         style="font-size:12px;font-style:normal;font-weight:normal;fill:#000000;fill-opacity:1;stroke:none;stroke-width:1px;stroke-linecap:butt;stroke-linejoin:miter;stroke-opacity:1;font-family:FreeSans"
         d="M 155.00818,148.12988 L 155.00818,152.79797 L 154.29993,152.79797 L 154.02417,151.63416 C 153.19213,152.56213 152.19604,153.02612 151.03589,153.02612 C 149.81201,153.02612 148.82409,152.57007 148.07214,151.65796 C 147.3761,150.82593 147.02808,149.76197 147.02808,148.46606 C 147.02808,147.05811 147.43603,145.91407 148.25195,145.03394 C 148.36401,144.91407 148.48401,144.80213 148.61194,144.69812 C 149.29187,144.13807 150.16394,143.85804 151.22815,143.85803 C 152.66003,143.85804 153.69994,144.33009 154.3479,145.27417 C 154.61205,145.66602 154.79211,146.12598 154.88806,146.65405 L 153.74805,146.65405 C 153.58007,145.87012 153.11608,145.33411 152.35608,145.04602 C 152.02014,144.91004 151.64013,144.84205 151.21606,144.84204 C 150.15991,144.84205 149.3479,145.25806 148.78003,146.09009 C 148.35596,146.71412 148.14392,147.48609 148.14392,148.40601 C 148.14392,149.41407 148.38794,150.25403 148.87598,150.9259 C 148.93994,151.00598 149.0039,151.08203 149.06787,151.15405 C 149.64404,151.72998 150.38012,152.026 151.27612,152.04211 C 152.18798,152.04211 152.90795,151.72205 153.43604,151.08191 C 153.82812,150.60193 154.02416,150.026 154.02417,149.35413 L 154.02417,149.11389 L 151.35999,149.11389 L 151.35999,148.12988 L 155.00818,148.12988 z "
         id="text3464" />
      <path
         sodipodi:type="arc"
         style="fill:#ffffff;fill-opacity:1;fill-rule:evenodd;stroke:#000000;stroke-width:0.88260317;stroke-linecap:square;stroke-linejoin:bevel;stroke-miterlimit:4;stroke-dasharray:none;stroke-dashoffset:0;stroke-opacity:1"
         id="path3468"
         sodipodi:cx="176.97586"
         sodipodi:cy="186.05432"
         sodipodi:rx="15.595573"
         sodipodi:ry="15.595573"
         d="M 192.57143 186.05432 A 15.595573 15.595573 0 1 1  161.38029,186.05432 A 15.595573 15.595573 0 1 1  192.57143 186.05432 z"
         transform="matrix(2.266024,0,0,2.266024,-14.019104,-235.46309)" />
      <path
         transform="matrix(4.0272059,0,0,4.0272059,-219.13858,-411.40014)"
         style="font-size:12px;font-style:normal;font-weight:normal;fill:#000000;fill-opacity:1;stroke:none;stroke-width:1px;stroke-linecap:butt;stroke-linejoin:miter;stroke-opacity:1;font-family:FreeSans"
         d="M 148.69617,148.76599 L 148.69617,152.75 L 147.57996,152.75 L 147.57996,144.00195 L 153.44812,144.00195 L 153.44812,144.98596 L 148.69617,144.98596 L 148.69617,147.78198 L 152.87207,147.78198 L 152.87207,148.76599 L 148.69617,148.76599 z "
         id="text3470" />
      <path
         id="path3490"
         style="font-size:12px;fill-rule:evenodd;stroke-width:0.625;stroke-linejoin:round"
         d="M 8.7185878,4.0337352 L -2.2072895,0.016013256 L 8.7185884,-4.0017078 C 6.97309,-1.6296469 6.9831476,1.6157441 8.7185878,4.0337352 z "
         transform="matrix(-1.1561437,-0.8937206,-0.8937206,1.1561437,380.44168,67.119645)" />
      <path
         id="path3494"
         style="font-size:12px;fill-rule:evenodd;stroke-width:0.625;stroke-linejoin:round"
         d="M 8.7185878,4.0337352 L -2.2072895,0.016013256 L 8.7185884,-4.0017078 C 6.97309,-1.6296469 6.9831476,1.6157441 8.7185878,4.0337352 z "
         transform="matrix(-1.3440065,0.57363,0.57363,1.3440065,377.95162,104.41495)" />
      <path
         id="path3496"
         style="font-size:12px;fill-rule:evenodd;stroke-width:0.625;stroke-linejoin:round"
         d="M 8.7185878,4.0337352 L -2.2072895,0.016013256 L 8.7185884,-4.0017078 C 6.97309,-1.6296469 6.9831476,1.6157441 8.7185878,4.0337352 z "
         transform="matrix(0.4457124,-1.3916699,-1.3916699,-0.4457124,398.15831,148.65157)" />
      <path
         id="path3498"
         style="font-size:12px;fill-rule:evenodd;stroke-width:0.625;stroke-linejoin:round"
         d="M 8.7185878,4.0337352 L -2.2072895,0.016013256 L 8.7185884,-4.0017078 C 6.97309,-1.6296469 6.9831476,1.6157441 8.7185878,4.0337352 z "
         transform="matrix(-1.4426346,0.2328308,0.2328308,1.4426346,202.78004,172.7655)" />
      <path
         id="path3500"
         style="font-size:12px;fill-rule:evenodd;stroke-width:0.625;stroke-linejoin:round"
         d="M 8.7185878,4.0337352 L -2.2072895,0.016013256 L 8.7185884,-4.0017078 C 6.97309,-1.6296469 6.9831476,1.6157441 8.7185878,4.0337352 z "
         transform="matrix(-0.9203215,-1.1350828,-1.1350828,0.9203215,219.13336,133.9728)" />
      <path
         style="opacity:1;fill:#ececec;fill-opacity:1;fill-rule:evenodd;stroke:#000000;stroke-width:2;stroke-linecap:square;stroke-linejoin:bevel;stroke-miterlimit:4;stroke-dasharray:none;stroke-dashoffset:0;stroke-opacity:1"
         d="M 189.68139,118.45033 L 237.67627,176.25631"
         id="path3502"
         transform="translate(-20.281066,-44.563063)"
         sodipodi:nodetypes="cc" />
      <path
         style="opacity:1;fill:#ececec;fill-opacity:1;fill-rule:evenodd;stroke:#000000;stroke-width:2;stroke-linecap:square;stroke-linejoin:bevel;stroke-miterlimit:4;stroke-dasharray:none;stroke-dashoffset:0;stroke-opacity:1"
         d="M 203.64676,99.888779 L 388.90873,129.58726"
         id="path3508"
         transform="translate(-20.281066,-44.563063)"
         sodipodi:nodetypes="cc" />
      <path
         style="opacity:1;fill:#ececec;fill-opacity:1;fill-rule:evenodd;stroke:#000000;stroke-width:2;stroke-linecap:square;stroke-linejoin:bevel;stroke-miterlimit:4;stroke-dasharray:none;stroke-dashoffset:0;stroke-opacity:1"
         d="M 173.94827,221.68792 L 216.02113,216.03107"
         id="path3512"
         transform="translate(-19.573959,-42.264966)"
         sodipodi:nodetypes="cc" />
      <path
         id="path3492"
         style="font-size:12px;fill-rule:evenodd;stroke-width:0.625;stroke-linejoin:round"
         d="M 8.7185878,4.0337352 L -2.2072895,0.016013256 L 8.7185884,-4.0017078 C 6.97309,-1.6296469 6.9831476,1.6157441 8.7185878,4.0337352 z "
         transform="matrix(-1.4535694,-0.1501357,-0.1501357,1.4535694,374.51786,85.545504)" />
    </g>
  </g>
</svg>
